<svg width="20" height="18" viewBox="0 0 20 18" fill="none" xmlns="http://www.w3.org/2000/svg">
<path d="M6.76 13.5L10 10.26L13.24 13.5L14.5 12.24L11.26 9L14.5 5.76L13.24 4.5L10 7.74L6.76 4.5L5.5 5.76L8.74 9L5.5 12.24L6.76 13.5ZM10 18C8.755 18 7.585 17.7636 6.49 17.2908C5.395 16.818 4.4425 16.1769 3.6325 15.3675C2.8225 14.5575 2.1814 13.605 1.7092 12.51C1.237 11.415 1.0006 10.245 1 9C1 7.755 1.2364 6.585 1.7092 5.49C2.182 4.395 2.8231 3.4425 3.6325 2.6325C4.4425 1.8225 5.395 1.1814 6.49 0.7092C7.585 0.237 8.755 0.0006 10 0C11.245 0 12.415 0.2364 13.51 0.7092C14.605 1.182 15.5575 1.8231 16.3675 2.6325C17.1775 3.4425 17.8189 4.395 18.2917 5.49C18.7645 6.585 19.0006 7.755 19 9C19 10.245 18.7636 11.415 18.2908 12.51C17.818 13.605 17.1769 14.5575 16.3675 15.3675C15.5575 16.1775 14.605 16.8189 13.51 17.2917C12.415 17.7645 11.245 18.0006 10 18ZM10 16.2C12.01 16.2 13.7125 15.5025 15.1075 14.1075C16.5025 12.7125 17.2 11.01 17.2 9C17.2 6.99 16.5025 5.2875 15.1075 3.8925C13.7125 2.4975 12.01 1.8 10 1.8C7.99 1.8 6.2875 2.4975 4.8925 3.8925C3.4975 5.2875 2.8 6.99 2.8 9C2.8 11.01 3.4975 12.7125 4.8925 14.1075C6.2875 15.5025 7.99 16.2 10 16.2Z" fill="#979797"/>
</svg>
