<svg width="20" height="18" viewBox="0 0 20 18" fill="none" xmlns="http://www.w3.org/2000/svg">
<path d="M8.56237 12.5296L5.09082 9.05724L6.24773 7.90033L8.56237 10.2141L13.19 5.58569L14.3477 6.74342L8.56237 12.5296Z" fill="#1DD000"/>
<path fill-rule="evenodd" clip-rule="evenodd" d="M1 9C1 4.02955 5.02955 0 10 0C14.9705 0 19 4.02955 19 9C19 13.9705 14.9705 18 10 18C5.02955 18 1 13.9705 1 9ZM10 16.3636C9.03299 16.3636 8.07546 16.1732 7.18206 15.8031C6.28866 15.4331 5.4769 14.8907 4.79312 14.2069C4.10935 13.5231 3.56694 12.7113 3.19689 11.8179C2.82683 10.9245 2.63636 9.96701 2.63636 9C2.63636 8.03299 2.82683 7.07546 3.19689 6.18206C3.56694 5.28866 4.10935 4.4769 4.79312 3.79312C5.4769 3.10935 6.28866 2.56694 7.18206 2.19689C8.07546 1.82683 9.03299 1.63636 10 1.63636C11.953 1.63636 13.8259 2.41217 15.2069 3.79312C16.5878 5.17407 17.3636 7.04704 17.3636 9C17.3636 10.953 16.5878 12.8259 15.2069 14.2069C13.8259 15.5878 11.953 16.3636 10 16.3636Z" fill="#1DD000"/>
</svg>
