<svg width="48" height="48" viewBox="0 0 48 48" fill="none" xmlns="http://www.w3.org/2000/svg">
<path d="M20.1665 33.4126L10.9091 24.153L13.9941 21.0679L20.1665 27.2381L32.5069 14.8955L35.5941 17.9828L20.1665 33.4082V33.4126Z" fill="white"/>
<path fill-rule="evenodd" clip-rule="evenodd" d="M0 24C0 10.7455 10.7455 0 24 0C37.2545 0 48 10.7455 48 24C48 37.2545 37.2545 48 24 48C10.7455 48 0 37.2545 0 24ZM24 43.6364C21.4213 43.6364 18.8679 43.1285 16.4855 42.1416C14.1031 41.1548 11.9384 39.7084 10.115 37.885C8.29159 36.0616 6.84519 33.8969 5.85837 31.5145C4.87155 29.1321 4.36364 26.5787 4.36364 24C4.36364 21.4213 4.87155 18.8679 5.85837 16.4855C6.84519 14.1031 8.29159 11.9384 10.115 10.115C11.9384 8.29159 14.1031 6.84519 16.4855 5.85837C18.8679 4.87155 21.4213 4.36364 24 4.36364C29.2079 4.36364 34.2025 6.43246 37.885 10.115C41.5675 13.7975 43.6364 18.7921 43.6364 24C43.6364 29.2079 41.5675 34.2025 37.885 37.885C34.2025 41.5675 29.2079 43.6364 24 43.6364Z" fill="white"/>
</svg>
