<svg width="18" height="18" viewBox="0 0 18 18" fill="none" xmlns="http://www.w3.org/2000/svg">
<path d="M0 14.4624V17.5024C0 17.7824 0.22 18.0024 0.5 18.0024H3.54C3.67 18.0024 3.8 17.9524 3.89 17.8524L14.81 6.94244L11.06 3.19244L0.15 14.1024C0.0500001 14.2024 0 14.3224 0 14.4624ZM17.71 4.04244C17.8027 3.94993 17.8763 3.84004 17.9264 3.71907C17.9766 3.59809 18.0024 3.46841 18.0024 3.33744C18.0024 3.20648 17.9766 3.07679 17.9264 2.95582C17.8763 2.83485 17.8027 2.72496 17.71 2.63244L15.37 0.292444C15.2775 0.19974 15.1676 0.126193 15.0466 0.0760114C14.9257 0.02583 14.796 0 14.665 0C14.534 0 14.4043 0.02583 14.2834 0.0760114C14.1624 0.126193 14.0525 0.19974 13.96 0.292444L12.13 2.12244L15.88 5.87244L17.71 4.04244Z" fill="#3B82F6"/>
</svg>
