<svg width="107" height="107" viewBox="0 0 107 107" fill="none" xmlns="http://www.w3.org/2000/svg">
<path fill-rule="evenodd" clip-rule="evenodd" d="M86.9375 28.9792C85.1639 28.9792 83.4629 29.6837 82.2087 30.9379C80.9546 32.192 80.25 33.893 80.25 35.6667V40.125H93.625V35.6667C93.625 33.893 92.9204 32.192 91.6663 30.9379C90.4121 29.6837 88.7111 28.9792 86.9375 28.9792ZM93.625 44.5833H80.25V81.3646L86.9375 91.3958L93.625 81.3646V44.5833ZM13.375 20.0625V86.9375C13.375 88.7111 14.0796 90.4121 15.3337 91.6663C16.5879 92.9204 18.2889 93.625 20.0625 93.625H69.1042C70.8778 93.625 72.5788 92.9204 73.8329 91.6663C75.0871 90.4121 75.7917 88.7111 75.7917 86.9375V20.0625C75.7917 18.2889 75.0871 16.5879 73.8329 15.3337C72.5788 14.0796 70.8778 13.375 69.1042 13.375H20.0625C18.2889 13.375 16.5879 14.0796 15.3337 15.3337C14.0796 16.5879 13.375 18.2889 13.375 20.0625ZM44.5833 33.4375C44.5833 32.8463 44.8182 32.2793 45.2362 31.8612C45.6543 31.4432 46.2213 31.2083 46.8125 31.2083H64.6458C65.237 31.2083 65.804 31.4432 66.2221 31.8612C66.6401 32.2793 66.875 32.8463 66.875 33.4375C66.875 34.0287 66.6401 34.5957 66.2221 35.0138C65.804 35.4318 65.237 35.6667 64.6458 35.6667H46.8125C46.2213 35.6667 45.6543 35.4318 45.2362 35.0138C44.8182 34.5957 44.5833 34.0287 44.5833 33.4375ZM46.8125 40.125C46.2213 40.125 45.6543 40.3599 45.2362 40.7779C44.8182 41.196 44.5833 41.763 44.5833 42.3542C44.5833 42.9454 44.8182 43.5124 45.2362 43.9304C45.6543 44.3485 46.2213 44.5833 46.8125 44.5833H64.6458C65.237 44.5833 65.804 44.3485 66.2221 43.9304C66.6401 43.5124 66.875 42.9454 66.875 42.3542C66.875 41.763 66.6401 41.196 66.2221 40.7779C65.804 40.3599 65.237 40.125 64.6458 40.125H46.8125ZM44.5833 62.4167C44.5833 61.8255 44.8182 61.2585 45.2362 60.8404C45.6543 60.4224 46.2213 60.1875 46.8125 60.1875H64.6458C65.237 60.1875 65.804 60.4224 66.2221 60.8404C66.6401 61.2585 66.875 61.8255 66.875 62.4167C66.875 63.0079 66.6401 63.5749 66.2221 63.9929C65.804 64.411 65.237 64.6458 64.6458 64.6458H46.8125C46.2213 64.6458 45.6543 64.411 45.2362 63.9929C44.8182 63.5749 44.5833 63.0079 44.5833 62.4167ZM46.8125 69.1042C46.2213 69.1042 45.6543 69.339 45.2362 69.7571C44.8182 70.1751 44.5833 70.7421 44.5833 71.3333C44.5833 71.9245 44.8182 72.4915 45.2362 72.9096C45.6543 73.3276 46.2213 73.5625 46.8125 73.5625H64.6458C65.237 73.5625 65.804 73.3276 66.2221 72.9096C66.6401 72.4915 66.875 71.9245 66.875 71.3333C66.875 70.7421 66.6401 70.1751 66.2221 69.7571C65.804 69.339 65.237 69.1042 64.6458 69.1042H46.8125ZM26.75 62.4167V69.1042H33.4375V62.4167H26.75ZM24.5208 57.9583H35.6667C36.2579 57.9583 36.8249 58.1932 37.2429 58.6112C37.661 59.0293 37.8958 59.5963 37.8958 60.1875V71.3333C37.8958 71.9245 37.661 72.4915 37.2429 72.9096C36.8249 73.3276 36.2579 73.5625 35.6667 73.5625H24.5208C23.9296 73.5625 23.3626 73.3276 22.9446 72.9096C22.5265 72.4915 22.2917 71.9245 22.2917 71.3333V60.1875C22.2917 59.5963 22.5265 59.0293 22.9446 58.6112C23.3626 58.1932 23.9296 57.9583 24.5208 57.9583ZM39.4719 35.0135C39.8779 34.5931 40.1026 34.03 40.0975 33.4455C40.0924 32.861 39.858 32.3019 39.4447 31.8886C39.0314 31.4753 38.4723 31.2409 37.8878 31.2358C37.3033 31.2307 36.7402 31.4554 36.3198 31.8615L28.9792 39.2021L26.0969 36.3198C25.6764 35.9138 25.1133 35.6891 24.5289 35.6941C23.9444 35.6992 23.3853 35.9337 22.972 36.347C22.5587 36.7603 22.3242 37.3194 22.3191 37.9039C22.3141 38.4883 22.5388 39.0514 22.9448 39.4719L28.9792 45.5062L39.4719 35.0135Z" fill="white"/>
</svg>
