<svg width="20" height="18" viewBox="0 0 20 18" fill="none" xmlns="http://www.w3.org/2000/svg">
<path d="M19.9603 8.37347C19.1762 6.34518 17.8149 4.59111 16.0447 3.32805C14.2745 2.06499 12.1731 1.34832 10 1.2666C7.82695 1.34832 5.72547 2.06499 3.9553 3.32805C2.18512 4.59111 0.823847 6.34518 0.0397175 8.37347C-0.0132392 8.51995 -0.0132392 8.68034 0.0397175 8.82682C0.823847 10.8551 2.18512 12.6092 3.9553 13.8722C5.72547 15.1353 7.82695 15.852 10 15.9337C12.1731 15.852 14.2745 15.1353 16.0447 13.8722C17.8149 12.6092 19.1762 10.8551 19.9603 8.82682C20.0132 8.68034 20.0132 8.51995 19.9603 8.37347ZM10 14.6003C6.46657 14.6003 2.73313 11.9802 1.37976 8.60014C2.73313 5.22005 6.46657 2.59997 10 2.59997C13.5334 2.59997 17.2669 5.22005 18.6202 8.60014C17.2669 11.9802 13.5334 14.6003 10 14.6003Z" fill="#3B82F6"/>
<path d="M10.0001 4.59985C9.20897 4.59985 8.43559 4.83446 7.77777 5.27399C7.11996 5.71353 6.60725 6.33826 6.30449 7.06919C6.00173 7.80011 5.92252 8.6044 6.07686 9.38035C6.23121 10.1563 6.61218 10.869 7.17161 11.4285C7.73103 11.9879 8.44379 12.3689 9.21973 12.5232C9.99568 12.6776 10.8 12.5983 11.5309 12.2956C12.2618 11.9928 12.8865 11.4801 13.3261 10.8223C13.7656 10.1645 14.0002 9.39111 14.0002 8.59997C14.0002 7.53907 13.5788 6.52163 12.8286 5.77146C12.0785 5.02129 11.061 4.59985 10.0001 4.59985ZM10.0001 11.2667C9.47268 11.2667 8.9571 11.1103 8.51855 10.8173C8.08001 10.5243 7.73821 10.1078 7.53637 9.62048C7.33453 9.1332 7.28172 8.59701 7.38461 8.07971C7.48751 7.56241 7.74149 7.08725 8.11444 6.7143C8.48739 6.34134 8.96256 6.08736 9.47986 5.98447C9.99716 5.88157 10.5333 5.93438 11.0206 6.13622C11.5079 6.33806 11.9244 6.67986 12.2174 7.1184C12.5105 7.55695 12.6669 8.07254 12.6669 8.59997C12.6669 9.30723 12.3859 9.98553 11.8858 10.4856C11.3857 10.9857 10.7074 11.2667 10.0001 11.2667Z" fill="#3B82F6"/>
</svg>
